:FULLY-SPECIFIED
:FORCE-ALL-JOINTS-BE-3DOF
:DEGREES
611
root 5.86036 16.7326 -3.83219 1.90544 51.1386 -6.20648
lfemur -16.6649 22.3473 -23.3198
ltibia 38.5758 -0 0
lfoot -35.2728 24.904 -0.0488904
ltoes 25.2701 -0 0
rfemur -53.2174 -17.6334 23.5235
rtibia 67.4021 -0 0
rfoot 10.7125 26.1178 0.0265383
rtoes -12.6545 0 0
lowerback 3.42736 -3.34352 -3.7278
upperback -0.120855 -4.56262 1.58488
thorax -1.62148 -2.24018 3.90703
lowerneck -8.87197 -8.86351 -0.202722
upperneck 14.8166 -12.4584 2.9413
head 6.18129 -5.8104 -0.019344
lclavicle 9.4331e-14 1.07053e-14 -2.15878e-30
lhumerus -25.0563 -41.6141 96.2117
lradius 59.2264 -0 0
lwrist 20.5339 0 0
lhand -12.5421 -1.38727 0.0322079
lfingers 7.12502 -0 0
lthumb 13.5332 28.127 0.0269068
rclavicle 9.4331e-14 1.07053e-14 -2.15878e-30
rhumerus 21.2904 3.41688 -71.421
rradius 114.008 -0 0
rwrist -57.1165 0 0
rhand -29.0191 -25.6865 0.0149323
rfingers 7.12502 -0 0
rthumb -2.37012 -55.6502 0.0143683
612
root 5.82568 16.7435 -3.83912 2.04382 49.6404 -6.10133
lfemur -16.6741 23.0521 -23.4392
ltibia 38.383 -0 0
lfoot -35.345 25.3335 -0.0401925
ltoes 25.8091 -0 0
rfemur -53.2759 -17.7839 23.8075
rtibia 68.0236 -0 0
rfoot 10.7405 26.7166 0.021814
rtoes -12.1143 0 0
lowerback 3.32926 -3.41852 -3.77107
upperback -0.191519 -4.66602 1.5305
thorax -1.63101 -2.29098 3.8768
lowerneck -8.96746 -8.7301 -0.0993829
upperneck 14.9415 -12.2929 2.8873
head 6.21995 -5.72489 -0.0482003
lclavicle 9.67746e-14 1.12677e-14 -1.775e-30
lhumerus -24.5289 -42.3184 96.138
lradius 59.3331 -0 0
lwrist 20.4866 0 0
lhand -12.2982 -1.30335 0.0264806
lfingers 7.12502 -0 0
lthumb 13.7685 28.1997 0.0221223
rclavicle 9.67746e-14 1.12677e-14 -1.775e-30
rhumerus 21.0846 3.08627 -71.3303
rradius 113.455 -0 0
rwrist -57.4359 0 0
rhand -29.1022 -25.8009 0.0122775
rfingers 7.12502 -0 0
rthumb -2.45035 -55.7642 0.0118137
613
root 5.791 16.7544 -3.84605 2.174 48.142 -6.00472
lfemur -16.6849 23.7569 -23.5594
ltibia 38.1903 -0 0
lfoot -35.4171 25.763 -0.030954
ltoes 26.3481 -0 0
rfemur -53.3352 -17.9342 24.092
rtibia 68.6452 -0 0
rfoot 10.7684 27.3155 0.0167975
rtoes -11.5741 0 0
lowerback 3.23121 -3.49359 -3.81423
upperback -0.262096 -4.76949 1.47623
thorax -1.64051 -2.34178 3.84658
lowerneck -9.06268 -8.59651 0.00369472
upperneck 15.0663 -12.1273 2.8337
head 6.25856 -5.63936 -0.0769936
lclavicle 9.92182e-14 1.18302e-14 -1.36723e-30
lhumerus -23.9942 -43.0221 96.0546
lradius 59.4398 -0 0
lwrist 20.4394 0 0
lhand -12.0542 -1.21945 0.020396
lfingers 7.12502 -0 0
lthumb 14.0039 28.2723 0.0170392
rclavicle 9.92182e-14 1.18302e-14 -1.36723e-30
rhumerus 20.8783 2.75598 -71.2384
rradius 112.902 -0 0
rwrist -57.7552 0 0
rhand -29.1852 -25.9153 0.0094568
rfingers 7.12502 -0 0
rthumb -2.53057 -55.8781 0.0090996
614
root 5.75632 16.7653 -3.85299 2.29685 46.6435 -5.91577
lfemur -16.6974 24.4616 -23.6803
ltibia 37.9975 -0 0
lfoot -35.4891 26.1924 -0.0211754
ltoes 26.8871 -0 0
rfemur -53.3954 -18.0841 24.3768
rtibia 69.2668 -0 0
rfoot 10.7963 27.9143 0.0114892
rtoes -11.034 0 0
lowerback 3.13321 -3.56874 -3.85725
upperback -0.332584 -4.87302 1.42209
thorax -1.64998 -2.39258 3.81637
lowerneck -9.15762 -8.46276 0.106512
upperneck 15.1907 -11.9616 2.78051
head 6.29712 -5.55382 -0.105724
lclavicle 1.01662e-13 1.23926e-14 -9.35473e-31
lhumerus -23.4519 -43.7253 95.9612
lradius 59.5466 -0 0
lwrist 20.3921 0 0
lhand -11.8103 -1.13558 0.0139543
lfingers 7.12502 -0 0
lthumb 14.2392 28.345 0.0116578
rclavicle 1.01662e-13 1.23926e-14 -9.35473e-31
rhumerus 20.6716 2.42603 -71.1454
rradius 112.348 -0 0
rwrist -58.0745 0 0
rhand -29.2683 -26.0297 0.00647032
rfingers 7.12502 -0 0
rthumb -2.61079 -55.9921 0.00622593
615
root 5.72164 16.7762 -3.85992 2.41313 45.1448 -5.83374
lfemur -16.7116 25.1664 -23.8022
ltibia 37.8047 -0 0
lfoot -35.561 26.6219 -0.0108572
ltoes 27.4261 -0 0
rfemur -53.4564 -18.2338 24.662
rtibia 69.8884 -0 0
rfoot 10.8241 28.5132 0.00588986
rtoes -10.4938 0 0
lowerback 3.03525 -3.64396 -3.90015
upperback -0.402986 -4.97662 1.36806
thorax -1.65943 -2.44339 3.78617
lowerneck -9.25228 -8.32884 0.209069
upperneck 15.315 -11.7957 2.72771
head 6.33564 -5.46826 -0.134392
lclavicle 1.04105e-13 1.2955e-14 -4.7973e-31
lhumerus -22.9014 -44.4277 95.8574
lradius 59.6533 -0 0
lwrist 20.3448 0 0
lhand -11.5663 -1.05174 0.00715561
lfingers 7.12502 -0 0
lthumb 14.4746 28.4176 0.00597799
rclavicle 1.04105e-13 1.2955e-14 -4.7973e-31
rhumerus 20.4643 2.09641 -71.0513
rradius 111.795 -0 0
rwrist -58.3939 0 0
rhand -29.3514 -26.144 0.00331805
rfingers 7.12502 -0 0
rthumb -2.691 -56.1061 0.00319273
616
root 5.68696 16.7871 -3.86685 2.52351 43.6461 -5.75799
lfemur -16.7275 25.8711 -23.9249
ltibia 37.6119 0 0
lfoot -35.6329 27.0513 0
ltoes 27.9651 0 0
rfemur -53.5182 -18.3832 24.9477
rtibia 70.51 0 0
rfoot 10.8519 29.112 0
rtoes -9.95358 0 0
lowerback 2.93735 -3.71926 -3.94293
upperback -0.4733 -5.08028 1.31416
thorax -1.66885 -2.4942 3.75597
lowerneck -9.34667 -8.19475 0.311368
upperneck 15.439 -11.6298 2.67532
head 6.3741 -5.38268 -0.162997
lclavicle 1.06549e-13 1.35174e-14 0
lhumerus -22.3425 -45.1294 95.7427
lradius 59.76 0 0
lwrist 20.2975 0 0
lhand -11.3224 -0.967928 0
lfingers 7.12502 0 0
lthumb 14.7099 28.4902 0
rclavicle 1.06549e-13 1.35174e-14 0
rhumerus 20.2566 1.76714 -70.9559
rradius 111.242 0 0
rwrist -58.7132 0 0
rhand -29.4344 -26.2584 0
rfingers 7.12502 0 0
rthumb -2.77121 -776.22 0
617
root 5.68279 16.7703 -3.81921 3.09052 42.6307 -5.32527
lfemur -16.6597 25.8267 -24.1025
ltibia 37.5615 -0 0
lfoot -35.7099 26.7913 0.00701451
ltoes 27.7003 -0 0
rfemur -53.7158 -18.728 25.256
rtibia 70.4991 -0 0
rfoot 10.3477 28.1703 0.174117
rtoes -9.5283 0 0
lowerback 2.86134 -3.743 -4.00735
upperback -0.500875 -5.1121 1.26238
thorax -1.65077 -2.51002 3.73349
lowerneck -9.36089 -8.15374 0.286798
upperneck 15.1098 -11.575 2.77259
head 6.28554 -5.35662 -0.117175
lclavicle 1.05856e-13 1.26059e-14 -2.206e-31
lhumerus -22.4458 -45.8322 96.1269
lradius 60.1237 -0 0
lwrist 20.4251 0 0
lhand -11.1399 -0.851582 0.00742594
lfingers 7.12502 -0 0
lthumb 14.8855 28.59 0.0061279
rclavicle 1.05856e-13 1.26059e-14 -2.206e-31
rhumerus 18.6092 1.52317 -71.1555
rradius 109.919 -0 0
rwrist -57.698 0 0
rhand -29.4332 -26.8698 -0.00025932
rfingers 7.12502 -0 0
rthumb -2.77005 -56.8314 -0.000250322
618
root 5.67861 16.7535 -3.77158 3.63823 41.6123 -4.91291
lfemur -16.5917 25.7826 -24.2802
ltibia 37.5111 -0 0
lfoot -35.787 26.5312 0.0136793
ltoes 27.4354 -0 0
rfemur -53.9157 -19.0719 25.5661
rtibia 70.4882 -0 0
rfoot 9.84064 27.2271 0.339917
rtoes -9.10302 0 0
lowerback 2.78535 -3.76683 -4.07175
upperback -0.528422 -5.14394 1.21061
thorax -1.63269 -2.52582 3.711
lowerneck -9.37512 -8.11274 0.262219
upperneck 14.7808 -11.5197 2.86951
head 6.197 -5.33048 -0.0713932
lclavicle 1.05162e-13 1.16944e-14 -4.30171e-31
lhumerus -22.5573 -46.5344 96.5179
lradius 60.4874 -0 0
lwrist 20.5527 0 0
lhand -10.9574 -0.735214 0.0144812
lfingers 7.12502 -0 0
lthumb 15.0611 28.6899 0.0119499
rclavicle 1.05162e-13 1.16944e-14 -4.30171e-31
rhumerus 16.9629 1.27357 -71.3479
rradius 108.595 -0 0
rwrist -56.6828 0 0
rhand -29.432 -27.4812 -0.000505858
rfingers 7.12502 -0 0
rthumb -2.7689 -57.4428 -0.000488304
619
root 5.67444 16.7367 -3.72394 4.16783 40.5911 -4.51973
lfemur -16.5237 25.7386 -24.4578
ltibia 37.4607 -0 0
lfoot -35.8641 26.2711 0.0199941
ltoes 27.1706 -0 0
rfemur -54.118 -19.4146 25.8782
rtibia 70.4773 -0 0
rfoot 9.33094 26.2824 0.497341
rtoes -8.67774 0 0
lowerback 2.70938 -3.79075 -4.13611
upperback -0.555943 -5.17581 1.15886
thorax -1.61459 -2.54163 3.68851
lowerneck -9.38937 -8.07174 0.237633
upperneck 14.452 -11.4638 2.96609
head 6.10849 -5.30427 -0.0256532
lclavicle 1.04469e-13 1.07829e-14 -6.28711e-31
lhumerus -22.6773 -47.2362 96.916
lradius 60.8511 -0 0
lwrist 20.6804 0 0
lhand -10.7749 -0.618823 0.0211658
lfingers 7.12502 -0 0
lthumb 15.2367 28.7897 0.0174658
rclavicle 1.04469e-13 1.07829e-14 -6.28711e-31
rhumerus 15.3176 1.01854 -71.5331
rradius 107.272 -0 0
rwrist -55.6677 0 0
rhand -29.4308 -28.0926 -0.000739584
rfingers 7.12502 -0 0
rthumb -2.76774 -58.0542 -0.00071392
620
root 5.67027 16.7199 -3.6763 4.68044 39.5672 -4.14467
lfemur -16.4554 25.6948 -24.6354
ltibia 37.4102 -0 0
lfoot -35.9413 26.0111 0.0259589
ltoes 26.9057 -0 0
rfemur -54.3227 -19.7564 26.1922
rtibia 70.4664 -0 0
rfoot 8.8187 25.3364 0.646335
rtoes -8.25246 0 0
lowerback 2.63344 -3.81475 -4.20045
upperback -0.583436 -5.2077 1.10711
thorax -1.5965 -2.55742 3.66601
lowerneck -9.40364 -8.03075 0.213039
upperneck 14.1233 -11.4074 3.06232
head 6.02 -5.27799 0.0200454
lclavicle 1.03776e-13 9.87139e-15 -8.16221e-31
lhumerus -22.8061 -47.9373 97.3217
lradius 61.2147 -0 0
lwrist 20.808 0 0
lhand -10.5923 -0.502412 0.0274795
lfingers 7.12502 -0 0
lthumb 15.4123 28.8896 0.0226758
rclavicle 1.03776e-13 9.87139e-15 -8.16221e-31
rhumerus 13.6732 0.758302 -71.7109
rradius 105.949 -0 0
rwrist -54.6525 0 0
rhand -29.4296 -28.704 -0.000960472
rfingers 7.12502 -0 0
rthumb -2.76657 -58.6657 -0.000927144
621
root 5.66609 16.7031 -3.62867 5.17708 38.5409 -3.78675
lfemur -16.3871 25.6512 -24.813
ltibia 37.3598 -0 0
lfoot -36.0184 25.751 0.0315736
ltoes 26.6409 -0 0
rfemur -54.5299 -20.097 26.5082
rtibia 70.4556 -0 0
rfoot 8.30406 24.389 0.786846
rtoes -7.82718 0 0
lowerback 2.55752 -3.83883 -4.26476
upperback -0.610902 -5.23962 1.05538
thorax -1.57839 -2.57321 3.6435
lowerneck -9.41793 -7.98976 0.188437
upperneck 13.7947 -11.3505 3.1582
head 5.93153 -5.25164 0.0657024
lclavicle 1.03082e-13 8.95989e-15 -9.92702e-31
lhumerus -22.9443 -48.6378 97.7354
lradius 61.5784 -0 0
lwrist 20.9356 0 0
lhand -10.4098 -0.385981 0.0334223
lfingers 7.12502 -0 0
lthumb 15.5879 28.9895 0.0275795
rclavicle 1.03082e-13 8.95989e-15 -9.92702e-31
rhumerus 12.0297 0.493072 -71.8812
rradius 104.625 -0 0
rwrist -53.6373 0 0
rhand -29.4284 -29.3154 -0.0011685
rfingers 7.12502 -0 0
rthumb -2.76541 -59.2771 -0.00112795
622
root 5.66191 16.6863 -3.58103 5.65872 37.5122 -3.44504
lfemur -16.3187 25.6078 -24.9907
ltibia 37.3094 -0 0
lfoot -36.0956 25.4909 0.0368379
ltoes 26.3761 -0 0
rfemur -54.7395 -20.4366 26.8262
rtibia 70.4447 -0 0
rfoot 7.78714 23.4404 0.918823
rtoes -7.40189 0 0
lowerback 2.48162 -3.863 -4.32904
upperback -0.638341 -5.27156 1.00366
thorax -1.56028 -2.58899 3.621
lowerneck -9.43223 -7.94879 0.163826
upperneck 13.4664 -11.293 3.25373
head 5.84308 -5.22522 0.111318
lclavicle 1.02389e-13 8.04839e-15 -1.15815e-30
lhumerus -23.0922 -49.3376 98.1575
lradius 61.9421 -0 0
lwrist 21.0632 0 0
lhand -10.2272 -0.269532 0.0389941
lfingers 7.12502 -0 0
lthumb 15.7635 29.0894 0.0321771
rclavicle 1.02389e-13 8.04839e-15 -1.15815e-30
rhumerus 10.387 0.223071 -72.0437
rradius 103.302 -0 0
rwrist -52.6221 0 0
rhand -29.4272 -29.9267 -0.00136364
rfingers 7.12502 -0 0
rthumb -2.76424 -59.8885 -0.00131632
623
root 5.65774 16.6695 -3.53339 6.12623 36.4813 -3.11869
lfemur -16.2501 25.5645 -25.1683
ltibia 37.259 -0 0
lfoot -36.1728 25.2308 0.0417518
ltoes 26.1112 -0 0
rfemur -54.9516 -20.7751 27.1462
rtibia 70.4338 -0 0
rfoot 7.26809 22.4906 1.04222
rtoes -6.97661 0 0
lowerback 2.40574 -3.88726 -4.39329
upperback -0.665753 -5.30353 0.951954
thorax -1.54216 -2.60476 3.59848
lowerneck -9.44654 -7.90781 0.139208
upperneck 13.1382 -11.2349 3.3489
head 5.75466 -5.19873 0.156891
lclavicle 1.01696e-13 7.13688e-15 -1.31257e-30
lhumerus -23.2503 -50.0367 98.5886
lradius 62.3058 -0 0
lwrist 21.1908 0 0
lhand -10.0446 -0.153066 0.0441948
lfingers 7.12502 -0 0
lthumb 15.9392 29.1893 0.0364685
rclavicle 1.01696e-13 7.13688e-15 -1.31257e-30
rhumerus 8.74514 -0.051477 -72.1984
rradius 101.979 -0 0
rwrist -51.607 0 0
rhand -29.426 -30.5381 -0.00154587
rfingers 7.12502 -0 0
rthumb -2.76307 -60.4999 -0.00149222
